<?xml version="1.0" standalone="no"?>
<!DOCTYPE svg PUBLIC "-//W3C//DTD SVG 20010904//EN"
 "http://www.w3.org/TR/2001/REC-SVG-20010904/DTD/svg10.dtd">
<svg version="1.0" xmlns="http://www.w3.org/2000/svg"
 width="1024.000000pt" height="1024.000000pt" viewBox="0 0 1024.000000 1024.000000"
 preserveAspectRatio="xMidYMid meet">
<metadata>
Created by potrace 1.11, written by Peter Selinger 2001-2013
</metadata>
<g transform="translate(0.000000,1024.000000) scale(0.100000,-0.100000)"
fill="#000000" stroke="none">
<path d="M1548 7485 c-1 -1 -28 -6 -58 -10 -30 -4 -68 -9 -85 -11 -130 -18
-348 -93 -470 -163 -267 -154 -445 -367 -590 -706 -40 -94 -93 -278 -114 -400
-6 -33 -13 -69 -15 -80 -2 -11 -7 -51 -11 -90 -4 -38 -10 -79 -13 -90 -9 -32
-11 -1283 -2 -1370 38 -378 107 -632 238 -869 137 -249 337 -444 579 -565 178
-90 331 -133 553 -158 126 -15 559 -6 589 11 3 2 29 6 58 10 73 8 315 72 393
102 241 95 418 206 571 355 l75 74 -1 905 -2 905 -758 0 -759 0 0 -333 -1
-332 30 -1 c17 0 157 0 313 1 l282 1 -2 -408 -3 -407 -40 -29 c-57 -41 -149
-82 -230 -103 -102 -26 -339 -26 -465 1 -77 16 -204 83 -266 141 -37 35 -104
118 -104 129 0 5 -6 16 -14 24 -19 23 -70 155 -91 236 -27 110 -35 158 -52
315 -18 172 -8 1323 13 1446 52 314 106 448 229 569 124 123 227 160 445 160
125 0 156 -3 220 -24 226 -70 321 -213 369 -556 6 -44 14 -93 16 -110 l5 -30
431 0 431 0 -6 76 c-4 41 -8 84 -10 95 -2 10 -7 39 -11 64 -14 94 -16 106 -25
145 -36 154 -105 349 -158 444 -56 102 -44 83 -120 181 -100 128 -215 221
-372 300 -138 69 -263 105 -511 146 -36 6 -475 14 -481 9z"/>
<path d="M4995 7474 c-271 -45 -446 -110 -629 -233 -286 -193 -462 -478 -502
-811 -13 -109 -9 -284 9 -390 87 -510 447 -861 1177 -1151 137 -54 399 -181
435 -211 11 -9 43 -34 70 -56 120 -93 178 -234 179 -437 1 -165 -27 -264 -97
-354 -80 -104 -217 -151 -419 -145 -221 8 -391 90 -474 230 -25 43 -76 164
-69 164 3 0 0 11 -5 25 -14 36 -27 140 -31 248 l-2 57 -447 0 -447 0 3 -62
c10 -191 28 -298 76 -442 167 -506 610 -850 1199 -929 183 -25 451 -17 629 18
14 3 34 7 45 9 277 53 551 220 713 434 150 201 219 429 220 732 0 234 -21 366
-86 535 -57 151 -152 296 -266 409 -67 67 -228 196 -244 196 -6 0 -12 4 -14 8
-5 13 -182 115 -288 165 -52 25 -149 66 -214 92 -426 169 -634 307 -720 477
-36 72 -57 161 -51 224 14 167 43 246 122 334 51 57 94 87 163 114 68 27 95
31 220 30 90 -1 128 -6 175 -23 194 -70 297 -238 320 -521 3 -41 8 -76 10 -78
3 -3 519 -4 819 -2 l63 0 -3 68 c-21 474 -232 860 -590 1079 -169 104 -296
150 -554 199 -68 13 -413 11 -495 -2z"/>
<path d="M7228 7418 c-2 -7 -4 -998 -3 -2203 l0 -2190 445 -3 445 -2 0 771 c0
506 3 773 10 775 6 2 195 5 420 7 439 4 494 9 685 63 493 140 818 511 905
1034 18 104 22 181 19 335 -4 178 -5 190 -29 323 -61 326 -253 639 -513 836
-148 112 -395 214 -582 241 -25 4 -65 10 -90 15 -25 5 -419 9 -876 10 -668 0
-832 -2 -836 -12z m1598 -739 c215 -39 380 -248 422 -534 13 -90 6 -334 -11
-415 -38 -170 -133 -304 -261 -364 -110 -53 -153 -57 -526 -54 l-335 3 0 670
c-1 369 1 678 3 688 4 16 28 17 326 17 189 0 347 -4 382 -11z"/>
</g>
</svg>
